<?xml version="1.0" encoding="utf-8"?>
<!-- Generator: Adobe Illustrator 18.1.1, SVG Export Plug-In . SVG Version: 6.00 Build 0)  -->
<svg version="1.1" id="Ebene_1" xmlns="http://www.w3.org/2000/svg" xmlns:xlink="http://www.w3.org/1999/xlink" x="0px" y="0px"
	 viewBox="0 0 83.2 56.6" enable-background="new 0 0 83.2 56.6" xml:space="preserve">
<g>
	<path fill="#372E31" d="M41.8,38.5c-10.5,0-19.1-8.6-19.1-19.1c0-10.5,8.6-19.1,19.1-19.1c4.4,0,8.8,1.6,12.2,4.4l-1.6,1.9
		c-3-2.4-6.7-3.8-10.6-3.8c-9.2,0-16.6,7.5-16.6,16.6S32.7,36,41.8,36s16.6-7.5,16.6-16.6H61C61,29.9,52.4,38.5,41.8,38.5z"/>
</g>
<g>
	<path fill="#DADADA" d="M61,19.4h-2.5c0-5-2.2-9.7-6.1-12.8L54,4.6C58.4,8.3,61,13.6,61,19.4z"/>
</g>
<path fill="#372E31" d="M48,26.5C48,26.5,48,26.5,48,26.5c-0.5,0-0.9,0.4-0.9,0.9c0,1.4-0.8,1.7-1.6,1.7c-1.3,0-3.1-1.1-3.1-3.2
	c0,0,0-0.1,0-0.1c1-0.4,1.6-1.3,1.6-2.4c0-1.4-1.1-2.6-2.6-2.6s-2.6,1.1-2.6,2.6c0,1.1,0.7,2,1.6,2.4c0,0,0,0.1,0,0.1c0,0,0,0,0,0.1
	c0,0,0,0,0,0c0,2-1.8,3.1-3.1,3.1c0,0,0,0,0,0c-0.3,0-0.8-0.1-1.1-0.4c-0.3-0.3-0.5-0.7-0.5-1.4c0-0.5-0.4-0.9-0.9-0.9c0,0,0,0,0,0
	c-0.5,0-0.9,0.4-0.9,0.9c0,1.4,0.6,2.3,1,2.7c0.6,0.6,1.5,0.9,2.4,0.9c0,0,0,0,0,0c1.5,0,3.1-0.8,4.1-2.1c1,1.3,2.5,2.1,4,2.1
	c0,0,0,0,0,0c1.7,0,3.4-1.1,3.4-3.6C48.9,26.9,48.5,26.5,48,26.5z"/>
<circle fill="#372E31" cx="47.1" cy="13.6" r="2.6"/>
<g>
	<path fill="#372E31" d="M3.6,45.2h2.1l0.7,2.6l0.8-2.6h2.1L8,49.3l0.6,1.8l1.8-5.8H13l-3.3,8.5H7.7l-1.2-3l-1.2,3H3.3L0,45.2h2.5
		l1.8,5.8L5,49.3L3.6,45.2z"/>
	<path fill="#372E31" d="M14.6,53.9c-0.3,0-0.6-0.1-0.9-0.2c-0.3-0.1-0.5-0.2-0.7-0.4c-0.2-0.2-0.3-0.4-0.5-0.6
		c-0.1-0.2-0.2-0.5-0.2-0.8c0-0.3,0.1-0.6,0.2-0.9c0.1-0.3,0.3-0.5,0.6-0.7c0.2-0.2,0.5-0.3,0.9-0.4c0.3-0.1,0.7-0.2,1.1-0.2
		c0.5,0,0.9,0.1,1.3,0.2v-0.2c0-0.3-0.1-0.5-0.3-0.7c-0.2-0.1-0.5-0.2-0.8-0.2c-0.4,0-0.7,0.1-1,0.2c-0.3,0.1-0.6,0.3-1,0.5
		l-0.7-1.4c0.8-0.5,1.8-0.8,2.8-0.8c1,0,1.8,0.2,2.3,0.7c0.5,0.4,0.8,1.1,0.8,2v1.2c0,0.2,0,0.4,0.1,0.5s0.2,0.1,0.4,0.2v1.9
		c-0.2,0-0.4,0.1-0.6,0.1c-0.2,0-0.3,0-0.5,0c-0.4,0-0.7-0.1-0.9-0.2c-0.2-0.1-0.4-0.4-0.4-0.7l0-0.2c-0.3,0.4-0.6,0.6-1,0.8
		C15.4,53.8,15,53.9,14.6,53.9z M15.3,52.2c0.1,0,0.3,0,0.4-0.1s0.3-0.1,0.4-0.2c0.1-0.1,0.2-0.1,0.2-0.2c0.1-0.1,0.1-0.2,0.1-0.2
		v-0.5C16.3,51,16.1,51,16,51c-0.2,0-0.3,0-0.4,0c-0.3,0-0.5,0.1-0.7,0.2c-0.2,0.1-0.3,0.3-0.3,0.5c0,0.2,0.1,0.3,0.2,0.4
		C14.9,52.2,15.1,52.2,15.3,52.2z"/>
	<path fill="#372E31" d="M20,45h2.3v6.1c0,0.5,0.2,0.7,0.6,0.7c0.1,0,0.2,0,0.3,0c0.1,0,0.2-0.1,0.3-0.1l0.3,1.8
		c-0.3,0.1-0.6,0.2-0.9,0.3s-0.7,0.1-1,0.1c-0.6,0-1.1-0.2-1.4-0.5C20.1,53.1,20,52.6,20,52V45z"/>
	<path fill="#372E31" d="M28.5,53.7l-1.4-2.3l-0.5,0.5v1.8h-2.3V45h2.3v4.8l1.7-2.3h2.4l-2.2,2.8l2.4,3.6H28.5z"/>
	<path fill="#372E31" d="M31.4,46.9V45h2.3v1.9H31.4z M31.4,53.7v-6.3h2.3v6.3H31.4z"/>
	<path fill="#372E31" d="M37.9,53.9c-0.6,0-1-0.1-1.5-0.3c-0.4-0.2-0.8-0.4-1.1-0.7s-0.5-0.6-0.7-1c-0.2-0.4-0.2-0.8-0.2-1.2
		c0-0.5,0.1-0.9,0.2-1.3c0.1-0.4,0.4-0.8,0.7-1.1c0.3-0.3,0.7-0.5,1.1-0.7s0.9-0.3,1.5-0.3c0.6,0,1.1,0.1,1.5,0.3s0.8,0.4,1.1,0.7
		s0.5,0.6,0.7,1c0.1,0.4,0.2,0.8,0.2,1.2c0,0.1,0,0.2,0,0.4c0,0.1,0,0.2,0,0.3h-4.4c0,0.3,0.1,0.6,0.4,0.7c0.2,0.1,0.5,0.2,0.7,0.2
		c0.2,0,0.5-0.1,0.7-0.2c0.2-0.1,0.4-0.3,0.4-0.5l1.9,0.6c-0.3,0.5-0.7,0.9-1.2,1.2C39.3,53.7,38.7,53.9,37.9,53.9z M38.9,49.9
		c0-0.3-0.2-0.5-0.3-0.7c-0.2-0.2-0.4-0.3-0.7-0.3c-0.3,0-0.5,0.1-0.7,0.3c-0.2,0.2-0.3,0.4-0.3,0.7H38.9z"/>
	<path fill="#F9B343" d="M42.3,53.7v-8.5h3.2c0.7,0,1.3,0.1,1.8,0.3c0.5,0.2,1,0.5,1.3,0.9c0.4,0.4,0.6,0.8,0.8,1.4
		c0.2,0.5,0.3,1.1,0.3,1.6c0,0.6-0.1,1.2-0.3,1.8c-0.2,0.5-0.5,1-0.9,1.3c-0.4,0.4-0.8,0.7-1.3,0.9c-0.5,0.2-1.1,0.3-1.7,0.3H42.3z
		 M47.8,49.5c0-0.4-0.1-0.7-0.2-1c-0.1-0.3-0.2-0.6-0.4-0.8c-0.2-0.2-0.4-0.4-0.7-0.5C46.2,47,45.9,47,45.5,47h-1.2V52h1.2
		c0.4,0,0.7-0.1,1-0.2c0.3-0.1,0.5-0.3,0.7-0.5c0.2-0.2,0.3-0.5,0.4-0.8C47.7,50.2,47.8,49.8,47.8,49.5z"/>
	<path fill="#F9B343" d="M53.8,53.9c-0.5,0-1-0.1-1.4-0.3s-0.8-0.4-1.1-0.7s-0.5-0.6-0.7-1c-0.1-0.4-0.2-0.8-0.2-1.2
		c0-0.4,0.1-0.8,0.2-1.2c0.1-0.4,0.4-0.7,0.7-1c0.3-0.3,0.6-0.5,1.1-0.7s0.9-0.3,1.4-0.3c0.5,0,1,0.1,1.4,0.3s0.8,0.4,1.1,0.7
		c0.3,0.3,0.5,0.6,0.7,1c0.2,0.4,0.2,0.8,0.2,1.2c0,0.4-0.1,0.8-0.2,1.2c-0.1,0.4-0.4,0.7-0.7,1s-0.6,0.5-1.1,0.7
		S54.3,53.9,53.8,53.9z M52.4,50.6c0,0.5,0.1,0.9,0.4,1.2s0.6,0.5,1,0.5c0.2,0,0.4,0,0.6-0.1s0.3-0.2,0.4-0.3
		c0.1-0.1,0.2-0.3,0.3-0.5c0.1-0.2,0.1-0.4,0.1-0.7c0-0.5-0.1-0.9-0.4-1.2c-0.3-0.3-0.6-0.5-1-0.5c-0.2,0-0.4,0-0.6,0.1
		s-0.3,0.2-0.4,0.3c-0.1,0.1-0.2,0.3-0.3,0.5C52.4,50.1,52.4,50.4,52.4,50.6z"/>
	<path fill="#F9B343" d="M60.5,53.8c-0.4,0-0.8-0.1-1.1-0.3s-0.6-0.4-0.9-0.7s-0.4-0.6-0.6-1c-0.1-0.4-0.2-0.8-0.2-1.2
		c0-0.5,0.1-0.9,0.2-1.3c0.1-0.4,0.3-0.7,0.6-1s0.6-0.5,0.9-0.7c0.4-0.2,0.8-0.3,1.2-0.3c0.5,0,0.9,0.1,1.2,0.3
		c0.4,0.2,0.6,0.5,0.9,0.8v-1h1.7v5.9c0,0.5-0.1,0.9-0.3,1.3c-0.2,0.4-0.4,0.7-0.8,1c-0.3,0.3-0.7,0.5-1.2,0.6
		c-0.4,0.1-0.9,0.2-1.5,0.2c-0.7,0-1.3-0.1-1.7-0.3c-0.5-0.2-0.9-0.5-1.3-0.9l1-1c0.2,0.3,0.5,0.5,0.9,0.6c0.3,0.2,0.7,0.2,1.1,0.2
		c0.2,0,0.5,0,0.7-0.1s0.4-0.2,0.6-0.3s0.3-0.3,0.4-0.5s0.1-0.5,0.1-0.8v-0.6c-0.2,0.4-0.5,0.6-0.8,0.8C61.3,53.7,61,53.8,60.5,53.8
		z M61.2,52.2c0.3,0,0.6-0.1,0.8-0.2c0.2-0.2,0.4-0.4,0.5-0.6V50c-0.1-0.3-0.3-0.6-0.6-0.8c-0.3-0.2-0.5-0.3-0.8-0.3
		c-0.2,0-0.4,0-0.6,0.1c-0.2,0.1-0.3,0.2-0.4,0.4s-0.2,0.3-0.3,0.5c-0.1,0.2-0.1,0.4-0.1,0.6c0,0.2,0,0.4,0.1,0.6
		c0.1,0.2,0.2,0.4,0.3,0.5c0.1,0.1,0.3,0.3,0.5,0.3C60.8,52.2,61,52.2,61.2,52.2z"/>
	<path fill="#F9B343" d="M68.2,53.8c-0.4,0-0.8-0.1-1.1-0.3c-0.3-0.2-0.6-0.4-0.9-0.7s-0.4-0.6-0.6-1c-0.1-0.4-0.2-0.8-0.2-1.2
		c0-0.5,0.1-0.9,0.2-1.3c0.1-0.4,0.3-0.7,0.6-1c0.3-0.3,0.6-0.5,0.9-0.7c0.4-0.2,0.8-0.3,1.2-0.3c0.5,0,0.9,0.1,1.2,0.3
		c0.4,0.2,0.6,0.5,0.9,0.8v-1h1.7v5.9c0,0.5-0.1,0.9-0.3,1.3c-0.2,0.4-0.4,0.7-0.8,1c-0.3,0.3-0.7,0.5-1.2,0.6
		c-0.4,0.1-0.9,0.2-1.5,0.2c-0.7,0-1.3-0.1-1.7-0.3c-0.5-0.2-0.9-0.5-1.3-0.9l1-1c0.2,0.3,0.5,0.5,0.9,0.6c0.3,0.2,0.7,0.2,1.1,0.2
		c0.2,0,0.5,0,0.7-0.1s0.4-0.2,0.6-0.3s0.3-0.3,0.4-0.5s0.1-0.5,0.1-0.8v-0.6c-0.2,0.4-0.5,0.6-0.8,0.8C69,53.7,68.6,53.8,68.2,53.8
		z M68.9,52.2c0.3,0,0.6-0.1,0.8-0.2c0.2-0.2,0.4-0.4,0.5-0.6V50c-0.1-0.3-0.3-0.6-0.6-0.8c-0.3-0.2-0.5-0.3-0.8-0.3
		c-0.2,0-0.4,0-0.6,0.1c-0.2,0.1-0.3,0.2-0.4,0.4s-0.2,0.3-0.3,0.5c-0.1,0.2-0.1,0.4-0.1,0.6c0,0.2,0,0.4,0.1,0.6
		c0.1,0.2,0.2,0.4,0.3,0.5c0.1,0.1,0.3,0.3,0.5,0.3C68.5,52.2,68.7,52.2,68.9,52.2z"/>
	<path fill="#F9B343" d="M73.4,46.7V45h1.9v1.7H73.4z M73.4,53.7v-6.3h1.9v6.3H73.4z"/>
	<path fill="#F9B343" d="M79.7,53.9c-0.5,0-1-0.1-1.4-0.3c-0.4-0.2-0.8-0.4-1.1-0.7s-0.5-0.6-0.7-1c-0.2-0.4-0.2-0.8-0.2-1.2
		c0-0.5,0.1-0.9,0.2-1.3c0.2-0.4,0.4-0.8,0.7-1.1c0.3-0.3,0.6-0.5,1.1-0.7c0.4-0.2,0.9-0.3,1.4-0.3s1,0.1,1.4,0.3s0.8,0.4,1.1,0.7
		s0.5,0.6,0.7,1c0.1,0.4,0.2,0.8,0.2,1.2c0,0.1,0,0.2,0,0.3c0,0.1,0,0.2,0,0.3h-4.7c0,0.4,0.2,0.7,0.5,1c0.3,0.2,0.6,0.3,0.9,0.3
		c0.3,0,0.5-0.1,0.8-0.2c0.3-0.1,0.4-0.3,0.5-0.6l1.6,0.5c-0.2,0.5-0.6,0.9-1.2,1.2C81,53.7,80.4,53.9,79.7,53.9z M81,50
		c0-0.4-0.2-0.7-0.4-0.9c-0.2-0.2-0.6-0.3-0.9-0.3c-0.4,0-0.7,0.1-0.9,0.4c-0.2,0.2-0.4,0.6-0.4,0.9H81z"/>
</g>
<path fill="#F9B343" d="M40.7,13.7L40.7,13.7C40.7,13.7,40.7,13.7,40.7,13.7c0-2.7-2.2-4.9-4.9-4.9S31,11,31,13.7c0,0,0,0,0,0h0
	c0,0,0,0.2,0.1,0.6c0,0.3,0.1,0.5,0.2,0.8c0.4,1.6,1.5,4.3,4.7,7.5c3.5-3.5,4.5-6.4,4.8-7.8c0,0,0,0,0-0.1
	C40.8,14,40.7,13.7,40.7,13.7z M35.8,16.2c-1.4,0-2.5-1.1-2.5-2.5c0-1.4,1.1-2.5,2.5-2.5s2.5,1.1,2.5,2.5
	C38.4,15.1,37.2,16.2,35.8,16.2z"/>
</svg>
